<?xml version="1.0" encoding="UTF-8"?>
<svg id="Capa_2" data-name="Capa 2" xmlns="http://www.w3.org/2000/svg" viewBox="0 0 1000 1000">
  <defs>
    <style>
      .cls-1 {
        fill: #f7dd4c;
      }

      .cls-2 {
        fill: #ec8226;
      }

      .cls-3 {
        fill: #757575;
      }

      .cls-4 {
        fill: #df4334;
      }
    </style>
  </defs>
  <g id="Capa_1-2" data-name="Capa 1">
    <g>
      <g>
        <path class="cls-4" d="M999.71,482.86C991.26,232.72,798.23,27.09,549.73,2.46,399.66-12.42,251.53,40.78,145.46,147.41c-191.34,192.33-194.26,502.49-6.69,698.4,193.54,202.14,515.36,206.02,713.8,8.76,98.69-98.11,151.86-232.46,147.15-371.71ZM956.75,523.56c-6.14,121.55-60.84,235.81-151.87,317.33-176.43,158-444.48,154.7-617.09-6.67-84.14-78.66-135.84-186.28-144.02-301.34-9.4-132.28,38.63-261.68,132.03-355.41C258.65,94.34,370.26,42.89,488.01,42.95h24.51c120.22.07,233.95,53.78,317.13,140.14,87.66,91.02,133.49,214,127.1,340.47Z"/>
        <path class="cls-4" d="M278.08,270.36c-130.18,125.82-129.66,334.92.8,460.13,130.39,125.14,340.07,117.25,460.56-19.16,112.48-127.33,105-320.88-15.9-439.36-123.61-121.12-321.37-121.54-445.46-1.61ZM729.44,714.16c-124.81,133.68-336.53,132.45-460-1.11-119.32-129.07-109.28-331.64,22.86-448.36,121.62-107.43,305.76-104.27,423.65,7.6,124.92,118.55,131.14,315.87,13.49,441.87Z"/>
        <polygon class="cls-2" points="201.01 727.99 182.92 747.17 156.57 745.36 170.06 768.26 159.66 792.16 185.53 787.78 205.46 804.49 208.18 778.35 231.25 764.6 206.71 753.89 201.01 727.99"/>
        <path class="cls-2" d="M867.1,518.56c1.16,8.82,7.94,16.31,8.12,24.66l-13.27,22.36,26.41-1.25,16.5,20.73,7.29-25.8,24.79-9.46-22.27-14.65-1.42-26.67-20.64,16.64-25.51-6.55Z"/>
        <path class="cls-2" d="M433.64,151.23c.24-4.62-.46-6.88.23-10,3.33-.37,8.93-3.38,10.05-.84l3.36,7.65c.94,2.13,6.16.2,8.49-1.22l-17.69-52.2c-4.54-.08-8.58.65-12.68,2.16l.12,48-14.96,2.97-11.31-44.68c-2.79-1.18-6.21.32-8.62,1.73l13.37,53.15,29.65-6.71ZM441.18,131.06c-1.56,2.17-5.09,2.03-7.64,1.47l-.57-24.66c4.08,7.54,5.29,15.62,8.21,23.19Z"/>
        <path class="cls-2" d="M147.18,445.4c1.14-2.74,1.71-4.75,1.58-7.34l-22.57-5.01c-3.09-.69-6.32-.49-9.44-1.98,4.82-.22,25.9-1.19,26.84.58,1.58-.19,3.74.66,5.93-.26,1.92-.81,3.07-6.35,1.57-7.98l-27.45-11.02,29.15,5.16c1.5-2.24,2.37-5.18,1.77-8.01l-53.51-11.34c-1.5,4.08-2.22,7.47-2.6,11.8l34.87,13.43-37.22-1.2c-1.54,3.74-2.73,7.64-2.32,11.98l53.41,11.21Z"/>
        <path class="cls-2" d="M852.96,444.24c-.8,5.92-7.5,10.46-9.48,16.2,5.55,2.44,13.75-2.47,19.58.72,5.51,3.02,7.53,10.67,12.53,13.96,3.39-5.3,2.26-13.65,6.07-18.37,4.63-4.06,12.54-4.1,17.87-7.75-4.28-4.32-12.03-6.18-15.81-11.26-2.89-5.36.12-13.34-1.94-19.41l-15.69,11.72-18.85-4.27c.46,6.2,6.55,12.34,5.73,18.46Z"/>
        <path class="cls-2" d="M172.67,677.6l16.06-10.88-17.71-8.02-4.62-19.1c-5.52,4.15-8.28,11.43-13.72,14.18l-19.24-1.28c1.88,6.02,8.11,11.15,9.21,17.21l-6.93,18.14c6.09.51,13.19-4.76,19.19-3.01l15.01,11.92c2.17-6.28-.07-14.01,2.75-19.16Z"/>
        <path class="cls-2" d="M288.42,788.16c-4.84,3.78-8.08,10.88-13.3,14.1-5.97,1.55-13.47-2-19.57-1.16,1.92,6.06,7.98,11.09,9.13,17.11l-6.83,18.37c6.63.06,13.29-4.75,19.05-3.33l15.12,11.91c2.19-5.93-.35-13.63,2.76-18.63,3.3-5.3,11.75-6.27,16.17-10.85l-17.26-8.57c-3.7-4.94-1.97-13.24-5.27-18.95Z"/>
        <path class="cls-2" d="M863.15,628.74c-3.1-5.29-.11-13.31-1.97-19.2-5.82,2.64-10.02,9.79-15.93,11.61l-18.6-4.32,6.07,18.39c-1.34,5.64-7.52,10.57-10.04,16.49,5.62,2.31,13.94-2.72,19.77.61,5.41,3.09,7.47,10.41,12.41,14.05,3.41-5.26,2.15-13.38,6.16-18.23,4.03-4.46,12.62-4.05,17.72-7.86-3.84-4.71-12.39-6.13-15.59-11.54Z"/>
        <path class="cls-2" d="M490.35,144.56l.41-36.49,10.74,36.3c2.37,1.3,6.82,1.22,9.04-.43l-.52-53.99c-2.71-.94-5.18-.79-7.78.07l-.62,28.94-8.48-29.29c-3.99-.08-6.99-.41-10.88.39l.63,54.25c.65,1.74,5.4.9,7.46.24Z"/>
        <path class="cls-2" d="M521.77,145.09l3.89-36,6.94,37.01c3.15.83,6.31,1.8,9.28.3l4.07-53.98c-2.28-.86-6.4-1.78-7.41-.25l-3.4,29.15-5.7-30.25c-3.68-1.19-7.2-1.29-11.03-1.05l-4.27,54.54c2.52,1.15,4.91,1.3,7.62.54Z"/>
        <path class="cls-2" d="M699.73,205.35l18.06-25.02c.9-2.21,1.49-3.83,3.03-4.93,1.99,3.16-1.3,4.37-1.87,6.05l-10.31,30.23c.73,2.49,4.95,4.96,7.42,5.31l31-44.53c-1.55-2.29-4.24-4.64-6.44-4.23-4.85,6.16-9.14,12.87-13.41,18.92-1.38,1.95-1.56,3.84-3.37,4.79-1.44-3.37,1.52-5.05,2.05-7.16,1.96-7.8,5.94-14.23,7.08-21.96-.87-2.75-5.52-4.93-8.58-6.33l-31.25,44.88c1.82,2.08,4.85,4.84,6.59,3.99Z"/>
        <path class="cls-2" d="M253.94,242.73l-20.68-23.01c-.13-.13-.25-.25-.37-.38-1.72-1.6-4.05-1.97-4.67-4.29,3.23-.61,4.25,2.59,6.01,3.66l27.86,16.85c2.7-1.74,5.07-3.61,6.47-6.3l-36.68-39.75c-2.26-.08-6.65,3.77-5.46,5.15l14.53,16.8c2.09,2.28,4.89,3.18,5.57,5.8-3.76-.52-4.8-3.58-6.8-4.57l-20.61-12.08c-3.28,1.84-5.83,4.28-7.93,7.27l37.03,40.41c2.39-1.31,4.34-2.95,5.74-5.57Z"/>
        <path class="cls-2" d="M142.99,492.93l-21.51-1.43c-.7-2.16,0-4.72.87-6.06,2.44-3.77,17.53.21,20.84-2.24,1.8-1.4.79-5.65.85-8.18l-15.55-.25c-4.66-.07-8.59.87-11.62,4.75-3.22-5.09-8.39-5.36-13.85-5.72-6.59-.44-13.12,1.56-14.28,8.62-.89,5.4-1.04,10.81-.68,17.12l55.08,2.02c.59-3.2.87-5.92-.16-8.62ZM112.06,490.95c-4.27,1.38-10.46.15-15.04-.27-1.85-.25-.96-6.06.89-6.88,4.01-1.76,8.4-1.08,12.6-.12,2.57.59,3.99,6.48,1.55,7.27Z"/>
        <path class="cls-2" d="M190.92,322.23l-17.36-11.47c-1.12-1.25,1.44-4.15,2.78-4.87,4.99-2.67,12.27,6.44,19.2,7.53,2.92.46,4.52-4.66,5.01-6.63-9.22-4.03-16.04-12.44-25.45-9.33-1.15-6.43-5.81-9-10.59-11.87-6.17-3.71-13.18-3.65-17.13,2.98-2.52,4.25-5.52,8.24-7.45,13.06l46.91,27.87c2-1.37,4.8-5.08,4.08-7.28ZM165.44,305.66c-4.56-1.14-9.68-4.46-13.26-7.86-1.21-1.15,1.48-4.62,2.97-5.11,3.68-1.2,11.06,4.16,12.38,5.95,1.14,1.54.37,6.46-2.09,7.02Z"/>
        <path class="cls-2" d="M678.46,194.05c6.05,3.45,13.46,2.79,17.46-4.09l16.2-27.84c4.06-6.98,1.03-14.34-5.85-17.88-6.05-3.11-13.17-2.09-16.79,4.18l-16.55,28.63c-3.83,6.63-.61,13.5,5.53,17ZM681.06,180.47l15.64-26.95c1.39-2.39,3.86-2.93,5.98-1.89,1.94.95,3.12,3.56,1.73,5.99l-15.37,26.85c-1.67,2.92-4.33,3.37-6.57,2.39-2.12-.93-2.82-3.96-1.41-6.39Z"/>
        <path class="cls-2" d="M166.19,279.3l26.38,18.89c6.09,4.36,13.19,2.93,17.77-3.1,4.67-6.14,4.04-13.87-2.21-18.33l-26.17-18.69c-6.47-4.62-13.95-2.28-18.13,3.98-3.82,5.73-3.62,12.97,2.36,17.25ZM170.99,266.06c.9-1.32,3.94-2.05,5.88-.67l25.34,17.96c2.44,1.73,2.87,4.24,2.11,5.93-1.09,2.42-4.21,3.42-6.63,1.69l-26.31-18.84c-1.95-1.4-1.41-4.55-.38-6.06Z"/>
        <path class="cls-2" d="M118.32,378.32l31.43,11.35c6.82,2.46,13.04-1.62,15.58-8.55,2.55-6.94-.19-13.72-6.92-16.33-10.37-4.02-20.77-7.78-31.4-11.22-6.93-2.25-12.91,1.83-15.29,8.18-2.48,6.61-.51,14.01,6.6,16.57ZM119.28,365.23c.29-2.38,2.87-4.12,5.73-3.1l29.42,10.52c2.89,1.03,3.64,3.21,3.31,5.22-.42,2.53-3.06,4.21-5.99,3.15l-29.79-10.7c-2.4-.86-2.89-3.25-2.67-5.09Z"/>
        <path class="cls-2" d="M558.82,150.74c7.09.71,12.78-3.21,13.91-10.05l5.39-32.44c1.17-7.06-3.63-12.26-10.08-13.73-7.91-1.8-14.87,2.26-16.21,10.47l-5.13,31.53c-1.24,7.61,4.22,13.43,12.12,14.22ZM555.49,137.29l5.12-30.82c.49-2.93,2.43-4.18,4.57-4.06,3.18.18,4.57,2.51,4.02,5.9l-4.8,29.39c-.58,3.55-2.52,5.15-4.83,4.91-2.63-.26-4.58-2.28-4.07-5.33Z"/>
        <path class="cls-2" d="M757.52,256.4c5.02,5.11,12.37,6.03,18.13.51l23.17-22.22c5.18-4.97,4.74-12.21.3-17.33-5.05-5.82-13.1-6.99-18.93-1.41l-23.14,22.09c-5.6,5.35-4.67,13.13.47,18.36ZM763.36,244.26l23.06-21.98c2.14-2.03,4.88-1.47,6.5.47,1.44,1.73,1.17,4.4-.91,6.37l-22.16,21.1c-2.11,2.01-4.8,1.8-6.28.62-1.88-1.51-2.25-4.65-.22-6.58Z"/>
        <path class="cls-2" d="M606.46,160.53c2.59-1.89,2.56-5.6,4.78-7.68,3.28.54,6.61,1.49,9.63,3.28.15,3.49-1.98,6.75-.82,9.28,1.54,1.87,4.79,2.18,7.6,2.98l9.36-55.14c-4.29-1.84-7.59-3.1-12.16-3.97l-25.71,48.92c1.77,1.67,5.45,3.7,7.31,2.34ZM625.97,124.22c.23,8.19-2.4,14.56-3.26,23.08-3.11.6-5.24-.71-7.7-2.27l10.95-20.82Z"/>
        <path class="cls-2" d="M310.17,198.89l-2.62-9.3c3-1.24,5.64-4.51,8.45-4.19,2.96.33,3.68,5.52,6.38,6.04,2.9.56,5.65-2.2,7.44-4.18l-35.79-42.65c-3.95,2.36-7.12,3.87-10.82,6.83l20.6,51.64c1.99-.93,6.92-2.2,6.36-4.18ZM295.86,161.78c-1.39-.7-1.69-1.58-1.47-2.99.16-1,1.19-.39,1.75.52.23.38.34.99.7,1.45l13.77,17.26c-1.55,2.33-4.02,3.57-6.84,3.93l-7.91-20.17Z"/>
        <path class="cls-2" d="M369.78,168.63c.75-3.19-1.85-5.79-.92-8.85,3.01-1.67,6.28-3.15,9.35-3.27,2.22,2,2.26,5.65,4.8,7.1,2.22,1.26,6.57-.78,7.88-2.98l-27.53-47.73-12.01,4.54,11.41,54.45c2.61-.08,6.44-.78,7.02-3.24ZM360.64,125.54c2.16,1.24,2.51,3.31,3.42,5.03l9.65,18.23c-1.8,1.69-5.08,3.04-7.17,2.06-1.6-5.53-2.98-11.63-3.77-16.97-1.22-2.85-2.5-5.09-2.13-8.36Z"/>
        <path class="cls-2" d="M812.07,283.03c3.15-1.28,5.13-1.93,6.72-.12,4.93,5.64-4.67,9.49-11.75,14.53-2.56,1.82-5.49.9-6.63-1.17-2.93-5.32,4.6-6.97,5.32-9.15.63-1.88-3.04-6.42-3.92-6.44-1.41-.04-2.56,1.28-3.6,1.92-7.17,4.41-9.28,12.07-4.13,19.21,4.06,5.62,10.58,7.33,16.51,3.73,8.23-5,21.69-12.14,18.88-20.71-1.08-3.29-3.48-5.81-7.54-7.09,3.18-2.65,6.04-4.37,9.75-6l8.65,11.76c2.7-1.2,4.76-2.42,6.29-4.7l-12.65-18.36-26.69,16.24c-.47,2.34,2.76,7.18,4.79,6.36Z"/>
        <path class="cls-2" d="M231.99,265.96l-36.38-41.62c-1.84.8-5.79,4.34-4.81,6.14l26,30.92-34.95-20.95c-2.5,1.69-5.05,3.83-5.44,6.98l47.08,28.62c3.55-3.34,6-6.24,8.51-10.1Z"/>
        <path class="cls-2" d="M614.45,106.25c-1.71-1.2-6.1-3.27-7.56-1.96l-16.54,37.96,3.36-41.66c-2.96-1.34-5.59-2.03-8.36-1.89l-5.14,55.17c4.5,1.73,8.39,2.98,12.85,3.09l21.39-50.7Z"/>
        <path class="cls-2" d="M640.76,174.99c5.72,2.22,11.86,1.29,15.22-4.35,1.74-2.91,4.02-6.52,4.23-9.88-1.06-1.97-4.85-3.07-7.03-3.39-1.66,2.69-2.26,5.18-3.61,7.77-1.36,2.62-3.71,3.15-6.38,1.93-1.57-.72-2.51-3.43-1.4-5.99l12.31-28.51c1.18-2.73,3.96-3.32,5.51-2.61,2.41,1.11,3.38,3.35,2.55,5.89-.72,2.22-1.76,3.75-2.35,6.4,1.69.87,5.4,3.7,7.3,2.37,2.15-1.51,2.75-5.53,3.46-7.9,1.87-6.25-1.65-11.19-6.91-13.89-6.62-3.39-14.32-1.6-17.41,5.64l-13.11,30.7c-2.98,6.97,1.15,13.31,7.64,15.82Z"/>
        <path class="cls-2" d="M143.11,521.63c-7.09-1.91-13.51.74-20.04-.43.65-7.17-1.81-14.37-9.17-15.62-5.42-.92-11.11-.43-16.59.56-11.87,2.15-8.95,16.14-8.02,25.79l54.28-2.42c1.42-1.15,1.41-7.37-.45-7.87ZM114.57,521.86c-5.53.26-11.98,1.28-17.13.38-1.78-.4-1.42-6.28.57-6.95,4.71-1.57,10.31-1.73,15.13-.51,2.15.55,2.26,4.46,1.43,7.07Z"/>
        <path class="cls-2" d="M178.16,346.69l-17.83-8.95c3.18-5.92,5.29-13.11.06-17.72-4.5-3.96-10.33-6.42-16.03-8.31-11.05-3.68-15.79,11.27-19.16,19.01l49.29,24.06c2.28-2.65,3.71-5.23,3.67-8.09ZM152.39,334.05l-15.26-7.48c-.94-2.71,1.74-7.19,5.2-6.12,4.24,1.32,8.43,3.27,11.75,5.93,2.26,1.81.3,6-1.69,7.66Z"/>
        <path class="cls-2" d="M264.75,219.14c4.26,5.48,11.38,5.39,16.67,1.65,5.3-3.74,7.83-9.89,4.62-15.88-1.84-3.43-3.98-6.49-7.01-9.13-1.75,1.24-5.59,2.81-5.6,4.82.03,2.6,3.21,4.5,4.59,6.97,1.68,3,.62,5.25-1.28,6.38-1.88,1.12-4.12.98-5.7-1.05l-18.88-24.25c-2.18-2.8-2.16-5.77.72-7.39,5.17-2.91,7.23,5.01,9.84,5.75,1.13.32,6.22-2.92,5.96-4.89-.11-.87-1.01-1.54-1.46-2.25-4.68-7.28-12.22-9.83-18.86-5.51-6.44,4.19-9.09,11.98-3.93,18.62l20.33,26.16Z"/>
        <path class="cls-2" d="M839.08,359.63l-1.7-14.73c-4.48,2.06-7.44,7.54-11.99,8.65-4.83,1.17-9.63-3.49-14.65-2.81.21,4.67,6.45,9.96,4.36,13.93l-6.96,13.22c4.56,1.55,10.55-2.23,14.9.34,4.25,2.51,5.77,8.09,9.62,10.86,2.74-4.04,1.68-10.45,4.83-14.12,3.18-3.69,10.1-2.96,13.44-6.4-3.14-3.69-11.35-4.64-11.85-8.95Z"/>
        <path class="cls-2" d="M146.9,592.04c4.7,1.57,7.32,7.25,11.49,8.99,2.16-4.39-.01-10.31,2.38-14.46,2.35-4.08,9.05-4.57,12.25-8.49-3.6-3.5-11.83-2.72-13.09-6.85l-4.36-14.25c-3.99,2.74-5.91,8.44-9.9,10.24-4.72,2.12-10.67-1.37-15.31-.4,1.09,4.87,6.47,8.72,6.78,13.48.31,4.71-4.88,9.02-4.9,13.86,4.74.58,10.2-3.62,14.66-2.12Z"/>
        <path class="cls-2" d="M376.91,835.36c-3.15-3.6-1.64-10.27-4.11-14.57-4.06,2.39-6.03,8.5-10.53,10.63-4.24,2-9.94-1.65-14.76-.56.37,4.94,8.12,9.22,6.49,13.65l-4.98,13.61c4.82.72,10.01-3.66,14.77-2.12,4.63,1.49,7.21,7,11.32,9.12l2.7-14.76c.81-4.44,9.46-4.88,12.33-8.28-3.63-3.31-10.14-3.19-13.23-6.73Z"/>
        <path class="cls-2" d="M802.38,699.4l-1.82-14.75c-4.78,2.27-7.83,9.46-12.12,8.65l-14.33-2.69c.21,4.69,4.84,9.33,4.41,13.88l-7.31,13.12c4.66,1.12,10.51-2.14,15.06.3,4.31,2.31,5.73,8.23,9.72,10.67,2.82-3.77,1.56-10.44,4.93-14.12,3.05-3.33,9.4-2.78,13.29-6.02-2.75-4.08-11.28-4.58-11.84-9.05Z"/>
        <path class="cls-2" d="M798.21,244.73c1.51,2.13,2.76,5.32,5.01,5.64,2.22.07,7.64-7.96,11.46-2.92,1.2,1.59,1.2,4.35-.55,6.1-13.38,13.38-30.28-3.98-44.58,14.87l15.25,18.52c2.14-.83,6.85-3.39,5.59-5.13l-9.18-12.66c8.93-6.37,32.18,5.1,42.16-13.5,2.48-4.63.69-9.6-2.34-13.28-2.46-3-6.38-5.73-11.16-4.96-4.82.78-8.49,3.99-11.65,7.31Z"/>
        <path class="cls-2" d="M758.37,204.28c1.93-.24,3.06-3.11,4.6-4.33,2.34-1.85,4.95-1.87,6.91.62,1.05,1.33.89,3.34-.73,5.53-11.16,15.07-29.88.71-41.17,21.52l18.28,15.92c1.88-1.43,5.25-3.94,4.73-5.89l-11.42-11.09c8.75-8.13,30.49-.09,38.92-18.87,2.18-4.85.51-9.95-3.22-13.45-2.73-2.56-6.84-5.21-11.62-3.93-5,1.34-8.77,5.1-11.26,9.49,1.84,1.9,3.63,4.36,5.98,4.48Z"/>
        <path class="cls-2" d="M147.19,448.56c-2.97-1.07-5.1-1.27-7.71-.92l-1.98,14.34c-5.26-.32-10.15-.92-15.62-1.88-.51-4.04,1.57-7.7.54-10.93-.59-1.73-5.99-1.96-7.15-.66l-2.04,10.61c-4.89-.28-9.68-.72-14.62-1.8-.37-4.67,1.76-9.38.88-13.87-.7-1.73-5.86-2.06-7.33-.77l-2.7,22.71,54.74,6.49c1.73-7.97,2.18-15.45,2.98-23.33Z"/>
        <path class="cls-2" d="M352.28,176.72c-.81-2.66-1.79-4.99-3.5-7.07-4.81,2.38-8.02,4.42-12.59,5.89l-20.96-41.75c-3.16.54-5.43,1.84-7.79,3.88l24.47,49.36,20.36-10.3Z"/>
        <path class="cls-2" d="M301.84,204.21l-30.65-44.85c-2.81,1.03-4.95,2.44-7.25,4.94l30.68,45.09c3.56-1.1,5.54-2.42,7.21-5.18Z"/>
        <path class="cls-2" d="M245.1,251.29l-39.64-37.66c-2.73,1.99-4.27,3.82-5.83,6.56l39.62,37.69c2.76-2.1,4.87-3.81,5.84-6.58Z"/>
        <path class="cls-2" d="M158.48,397.19l-52.59-15.34c-1.28,3.09-1.98,5.36-2.24,8.44l52.52,15.37c1.87-3.31,2.54-5.49,2.31-8.47Z"/>
        <path class="cls-2" d="M664.3,184.25l24.13-48.5c-2.25-2.01-4.77-3.1-7.82-4.07l-24.56,49.04c2.83,2.09,5.1,4.26,8.24,3.53Z"/>
        <path class="cls-2" d="M478.28,145.04l-4.07-53.92c-2.85-.73-6.42-1.15-8.64.82l3.83,53.85c3.35.66,5.98.62,8.87-.74Z"/>
        <path class="cls-2" d="M719.71,139.53c-2.68-1.86-5.2-4.32-7.92-3.21-1.66.68-5.14,1.66-6.39,4.05.79,5.34,12.4.77,14.31-.84Z"/>
        <path class="cls-3" d="M126.2,433.05c-1.09-2.03,12.6-.82,17.4-1.41-11.88.12-17.83.18-17.83.18l.43,1.23Z"/>
        <path class="cls-2" d="M240.74,212.39c.11.06.2.12.29.17-.13-.29-.13-.67-.09-1.09-.32.49-.74.9-1.23,1.22.42-.26.8-.43,1.02-.31Z"/>
        <path class="cls-2" d="M232.89,219.34c.13.12.25.24.37.38l.97-1c-3.73-2.45-4.17-2.24-1.34.63Z"/>
        <path class="cls-2" d="M727.21,187.14c-1.13-.2-1.46-1.36-1.32-2.37-.74,3.47-.3,4.26,1.32,2.37Z"/>
        <path class="cls-2" d="M717.8,180.33c.48.27.87.66,1.16,1.12.92-3.09.53-3.47-1.16-1.12Z"/>
        <path class="cls-2" d="M295.86,161.78l.98-1.02c-1.76-.94-2.33-.26-.98,1.02Z"/>
        <path class="cls-2" d="M362.78,133.89c.09-1.22.41-2.44,1.29-3.33-1.78-.89-2.21.22-1.29,3.33Z"/>
        <path class="cls-2" d="M429.1,394.65c42.81-13.95,87.33-13.29,130.14.18,4.93,1.55,7.99.78,10.7-3.19,3.67-5.37,5.58-11.68,7.09-18.36,7.64-33.83,5.25-68.02-3.06-101.46-2.6-10.47-7.8-16.87-18.64-20.07-41.57-12.24-86.55-10.12-126.88,6.65-1.2,3.48-1.11,7.18.03,10.62,13.41,40.47,9.53,84.12.63,125.64Z"/>
        <path class="cls-2" d="M589.34,426.95c-5.95-2.53-10.02-.1-13.76,4.42-8.11,9.8-13.28,20.81-20.68,31.38-17.43,24.87-41.33,43.84-67.87,58.27-1.51.82-2.58,1.52-2.27,2.89.99,4.35,27.17,22.57,33.08,26.84,16.71,12.09,31.29,25.86,42.39,43.85l16.54,26.8c1.52,2.46,3.83,4.56,6.99,3.35l75.92-133.75c-1.75-5.02-4.75-8.67-8.11-12.62-14.64-17.17-41.68-42.69-62.21-51.43Z"/>
        <path class="cls-4" d="M406.14,432.72c-20.37-24.94-48.38-41.3-79.93-46.24.42,4.19-1.33,7.15-1.76,10.6-4.72,37.45,7.3,82.68,26.52,115.21,19.41,34.46,42.03,60.88,59.3,98.05,42.52-52.23,36.75-127.58-4.13-177.63Z"/>
        <path class="cls-1" d="M594.64,270.45c1.8,20.96,4.91,40.2,5.08,60.48.6,15.11-.82,29.36-5.48,43.57-2.66,12.45-10.66,28.14,3.44,36.5l15.97,9.07c21.03,11.94,37.66,29.36,54.52,48.2,24.08-74.8-5.8-157.26-73.53-197.82Z"/>
        <path class="cls-4" d="M555.65,636.17c4.22-1.56,5.03-5.1,3.36-8.57-9.54-19.77-22.9-36.47-38.53-51.91-16.18-15.98-34.01-28.76-54.87-37.86-9.88-4.31-9.91,17.52-11.91,26.85-4.47,20.83-14.68,39.25-27.19,56.12-2.81,3.78-4.63,7.75-4.08,12.88,41.33,14.96,91.15,18.09,133.23,2.5Z"/>
        <path class="cls-4" d="M436.45,442.82c16.25,22.72,20.84,65.9,24.07,68.55,1.15.95,3.53,1.5,6.06.28,39.38-19.11,70.69-49.43,91.55-87.37,1.23-2.23,2.07-7.65.14-9.2-26.83-14.51-68.7-12.82-98.14-7.77-7.14,1.23-38.46,5.45-39.02,11.45-.16,1.67.41,3.22,1.43,4.64l13.9,19.43Z"/>
        <path class="cls-4" d="M407.38,397.49c14.38-42.11,13.89-85.83,3.27-129.61-38.73,18.85-67.74,59.1-79.98,98.87,17.78,3.96,34.32,10.29,49.82,19.73,2.61,1.59,24.04,19.34,26.89,11Z"/>
        <path class="cls-2" d="M557.51,659.85l-33.42,6.57c-36.13,7.1-75.59-6.9-84.68-7.13-6.62-.17-12.44,3.7-12.29,10.41.3,13.55,10.65,22.57,23.86,23.19,33.03,1.53,64.97,1.77,97.89-.45,12.71-.86,24.84-10.52,23.72-24.35-.62-7.73-9.69-9.29-15.08-8.23Z"/>
        <path class="cls-2" d="M549.49,698.91l-94.99-.2c-7.1-.01-12.59,3.5-13.87,10.09-.96,4.95,2.42,14.03,9.23,14.03h100.1c6.96.02,10.17-7.99,9.75-12.9-.42-4.85-4.08-11.01-10.22-11.02Z"/>
        <path class="cls-2" d="M525.15,729.74h-51c-1.66-.01-3.18.69-3.71,1.66-3.6,6.53,9.23,27.33,34.2,24.51,14.26-1.61,28.46-17.38,24.76-23.47-.63-1.04-2.12-2.71-4.24-2.71Z"/>
      </g>
      <g>
        <path class="cls-2" d="M420.86,832.25l36.03,7.75-3.16,14.7-19.38-4.17-4.25,19.76,18.2,3.92-3.18,14.82-18.21-3.91-8.05,37.45-16.65-3.58,18.66-86.74Z"/>
        <path class="cls-2" d="M477.97,841.96l-9.69,88.16-16.91-1.86,9.69-88.16,16.92,1.86Z"/>
        <path class="cls-2" d="M485.59,931.86l-.74-88.71,18.88-.16,9.51,38.89c1.37,5.31,2.63,11.94,3.32,15.93h.4c-1.03-11.83-1.7-27.92-1.8-40.42l-.12-14.5,15.83-.13.74,88.71-19.15.16-9.95-44.08c-.96-4.38-1.94-10.22-2.63-13.02h-.4c.76,10.38,1.44,28.06,1.55,42.02l.13,15.16-15.56.13Z"/>
        <path class="cls-2" d="M562.59,906.3l1.36,21.21-17.18,2.85-2.2-89.54,25.05-4.16,27.27,85.39-17.45,2.89-5.96-20.44-10.89,1.8ZM569.58,889.91c-3.03-10.95-7.57-27.72-9.89-35.97l-.65.11c.74,6.08,1.91,26.11,2.53,37.18l8.01-1.33Z"/>
        <path class="cls-2" d="M584.03,833.52l16.24-5.1,22.08,70.45,20.57-6.45,2.94,14.7-35.29,11.06-26.54-84.66Z"/>
        <path class="cls-2" d="M638.1,813.95l34.98,81.55-15.64,6.71-34.98-81.54,15.64-6.72Z"/>
        <path class="cls-2" d="M686.49,858.17l3.07,5.45c2.8,4.97,5.45,6.69,8.8,4.8,3.49-1.96,2.34-5.9.24-9.6-4.11-7.3-6.68-8.6-18.28-10.76-12.98-2.45-19.87-4.37-26.26-15.73-6.21-11-8.36-23.22,6.35-31.51,15.53-8.75,23.85.6,28.81,9.41l2.49,4.41-14.02,7.9-2.62-4.63c-2.62-4.63-4.73-6.49-7.63-4.86-2.78,1.57-2.4,4.41.08,8.81,2.61,4.63,4.84,6.43,14.02,7.82,16.38,2.52,23.31,5.33,30.43,17.96,6.86,12.17,8.3,24.48-6.99,33.1-14.71,8.29-24.03,1.79-30.49-9.68l-2.61-4.64,14.59-8.22Z"/>
        <path class="cls-2" d="M698.84,796l-10.3,7.76-9.05-12,34.31-25.85,9.05,12-10.31,7.76,44.33,58.84-13.7,10.32-44.33-58.83Z"/>
        <path class="cls-2" d="M769.68,805.53l13.2,16.66-12.51,12.13-52.78-72.4,18.25-17.68,71.01,54.71-12.69,12.32-16.54-13.43-7.93,7.69ZM766.1,788.07c-8.73-7.28-22.01-18.49-28.6-23.96l-.47.46c4.06,4.58,16.42,20.39,23.25,29.15l5.83-5.65Z"/>
      </g>
    </g>
  </g>
</svg>